# xmcd
#
# Track frame offsets:
#      150
#      13456
#      30566
#      46680
#      65179
#      84738
#      100635
#      114411
#      129663
#      141508
#      159042
#      177800
#      196922
# 
# Disc length: 2857 seconds
#
# Revision: 1
# Processed by: cddbd v1.4PL0 Copyright (c) Steve Scherf et al.
#
# Submitted via: FreeRIP 1.20
#
DISCID=ab0b270d
DTITLE=Brooks and Dunn - Tight Rope
DYEAR=1999
DGENRE=Country
TTITLE0=Goin' Under Gettin' Over You
TTITLE1=Missing You
TTITLE2=Temptation #9
TTITLE3=Hurt Train
TTITLE4=Can't Stop My Heart
TTITLE5=Too Far This Time
TTITLE6=You'll always Be Love By Me
TTITLE7=I Love You More
TTITLE8=Beer Thirty
TTITLE9=Don't Look Back Now
TTITLE10=All Out Of Love
TTITLE11=The Trouble With Angels
TTITLE12=Texas And Norma Jean
EXTD=
EXTT0=
EXTT1=
EXTT2=
EXTT3=
EXTT4=
EXTT5=
EXTT6=
EXTT7=
EXTT8=
EXTT9=
EXTT10=
EXTT11=
EXTT12=
PLAYORDER=
